<mxfile host="app.diagrams.net" agent="Mozilla/5.0 (Windows NT 10.0; Win64; x64) AppleWebKit/537.36 (KHTML, like Gecko) Chrome/131.0.0.0 Safari/537.36 Edg/131.0.0.0" version="26.0.5">
  <diagram id="C5RBs43oDa-KdzZeNtuy" name="Page-1">
    <mxGraphModel dx="1386" dy="791" grid="1" gridSize="10" guides="1" tooltips="1" connect="1" arrows="1" fold="1" page="1" pageScale="1" pageWidth="827" pageHeight="1169" math="0" shadow="0">
      <root>
        <mxCell id="WIyWlLk6GJQsqaUBKTNV-0" />
        <mxCell id="WIyWlLk6GJQsqaUBKTNV-1" parent="WIyWlLk6GJQsqaUBKTNV-0" />
        <mxCell id="fKGzsHX2WgbHvw9zgZlm-8" style="edgeStyle=orthogonalEdgeStyle;rounded=0;orthogonalLoop=1;jettySize=auto;html=1;exitX=0.5;exitY=1;exitDx=0;exitDy=0;entryX=0.5;entryY=0;entryDx=0;entryDy=0;" edge="1" parent="WIyWlLk6GJQsqaUBKTNV-1" source="WIyWlLk6GJQsqaUBKTNV-3" target="GQ_UP2aEXjX4dfegTA5T-0">
          <mxGeometry relative="1" as="geometry" />
        </mxCell>
        <mxCell id="WIyWlLk6GJQsqaUBKTNV-3" value="time = 19:00, tracks = 0" style="rounded=1;whiteSpace=wrap;html=1;fontSize=12;glass=0;strokeWidth=1;shadow=0;" parent="WIyWlLk6GJQsqaUBKTNV-1" vertex="1">
          <mxGeometry x="240" y="80" width="160" height="40" as="geometry" />
        </mxCell>
        <mxCell id="ZAJGRfn8nqSbvOP2YXQ2-24" style="edgeStyle=orthogonalEdgeStyle;rounded=0;orthogonalLoop=1;jettySize=auto;html=1;exitX=0.5;exitY=1;exitDx=0;exitDy=0;entryX=0.5;entryY=0;entryDx=0;entryDy=0;" parent="WIyWlLk6GJQsqaUBKTNV-1" source="ir5nsz0QgqIiOz35YuUZ-3" target="WIyWlLk6GJQsqaUBKTNV-3" edge="1">
          <mxGeometry relative="1" as="geometry" />
        </mxCell>
        <mxCell id="ir5nsz0QgqIiOz35YuUZ-3" value="peopleAmount, avgTrackLength, newSongs" style="ellipse;shape=doubleEllipse;whiteSpace=wrap;html=1;" parent="WIyWlLk6GJQsqaUBKTNV-1" vertex="1">
          <mxGeometry x="260" width="120" height="60" as="geometry" />
        </mxCell>
        <mxCell id="ir5nsz0QgqIiOz35YuUZ-16" value="&lt;div&gt;return&amp;nbsp;&lt;/div&gt;&lt;div&gt;games&amp;nbsp;&lt;br&gt;&lt;/div&gt;" style="ellipse;shape=doubleEllipse;whiteSpace=wrap;html=1;aspect=fixed;spacing=0;" parent="WIyWlLk6GJQsqaUBKTNV-1" vertex="1">
          <mxGeometry x="240" y="780" width="80" height="80" as="geometry" />
        </mxCell>
        <mxCell id="GQ_UP2aEXjX4dfegTA5T-2" style="edgeStyle=orthogonalEdgeStyle;rounded=0;orthogonalLoop=1;jettySize=auto;html=1;exitX=0;exitY=0.5;exitDx=0;exitDy=0;" parent="WIyWlLk6GJQsqaUBKTNV-1" source="GQ_UP2aEXjX4dfegTA5T-0" target="GQ_UP2aEXjX4dfegTA5T-1" edge="1">
          <mxGeometry relative="1" as="geometry" />
        </mxCell>
        <mxCell id="jjzzAAq12mvwuto8nEBg-1" style="edgeStyle=orthogonalEdgeStyle;rounded=0;orthogonalLoop=1;jettySize=auto;html=1;exitX=1;exitY=0.5;exitDx=0;exitDy=0;entryX=0.5;entryY=0;entryDx=0;entryDy=0;" parent="WIyWlLk6GJQsqaUBKTNV-1" source="GQ_UP2aEXjX4dfegTA5T-0" target="jjzzAAq12mvwuto8nEBg-2" edge="1">
          <mxGeometry relative="1" as="geometry">
            <mxPoint x="439" y="200" as="targetPoint" />
          </mxGeometry>
        </mxCell>
        <mxCell id="GQ_UP2aEXjX4dfegTA5T-0" value="peopleAmount &amp;gt; 10000" style="rhombus;whiteSpace=wrap;html=1;shadow=0;fontFamily=Helvetica;fontSize=12;align=center;strokeWidth=1;spacing=6;spacingTop=0;spacingRight=5;spacingLeft=5;" parent="WIyWlLk6GJQsqaUBKTNV-1" vertex="1">
          <mxGeometry x="240" y="140" width="160" height="80" as="geometry" />
        </mxCell>
        <mxCell id="fKGzsHX2WgbHvw9zgZlm-6" style="edgeStyle=orthogonalEdgeStyle;rounded=0;orthogonalLoop=1;jettySize=auto;html=1;exitX=0.5;exitY=1;exitDx=0;exitDy=0;entryX=0.5;entryY=0;entryDx=0;entryDy=0;" edge="1" parent="WIyWlLk6GJQsqaUBKTNV-1" source="GQ_UP2aEXjX4dfegTA5T-1" target="fKGzsHX2WgbHvw9zgZlm-2">
          <mxGeometry relative="1" as="geometry" />
        </mxCell>
        <mxCell id="GQ_UP2aEXjX4dfegTA5T-1" value="time += 10 * avgTrackLength" style="rounded=1;whiteSpace=wrap;html=1;" parent="WIyWlLk6GJQsqaUBKTNV-1" vertex="1">
          <mxGeometry x="139" y="220" width="160" height="40" as="geometry" />
        </mxCell>
        <mxCell id="GQ_UP2aEXjX4dfegTA5T-3" value="Yes" style="text;html=1;align=center;verticalAlign=middle;whiteSpace=wrap;rounded=0;" parent="WIyWlLk6GJQsqaUBKTNV-1" vertex="1">
          <mxGeometry x="199" y="150" width="41" height="30" as="geometry" />
        </mxCell>
        <mxCell id="GQ_UP2aEXjX4dfegTA5T-10" value="No" style="text;html=1;align=center;verticalAlign=middle;whiteSpace=wrap;rounded=0;" parent="WIyWlLk6GJQsqaUBKTNV-1" vertex="1">
          <mxGeometry x="400" y="150" width="39" height="30" as="geometry" />
        </mxCell>
        <mxCell id="GQ_UP2aEXjX4dfegTA5T-20" value="&lt;h1 style=&quot;margin-top: 0px;&quot;&gt;Task_2&lt;/h1&gt;&lt;p&gt;&lt;span style=&quot;font-size: 14px;&quot;&gt;Посчитать количество треков, исполненных на концерте&lt;/span&gt;&lt;/p&gt;" style="text;html=1;whiteSpace=wrap;overflow=hidden;rounded=0;" parent="WIyWlLk6GJQsqaUBKTNV-1" vertex="1">
          <mxGeometry width="220" height="120" as="geometry" />
        </mxCell>
        <mxCell id="fKGzsHX2WgbHvw9zgZlm-5" style="edgeStyle=orthogonalEdgeStyle;rounded=0;orthogonalLoop=1;jettySize=auto;html=1;exitX=0.5;exitY=1;exitDx=0;exitDy=0;entryX=0.5;entryY=0;entryDx=0;entryDy=0;" edge="1" parent="WIyWlLk6GJQsqaUBKTNV-1" source="jjzzAAq12mvwuto8nEBg-2" target="fKGzsHX2WgbHvw9zgZlm-4">
          <mxGeometry relative="1" as="geometry" />
        </mxCell>
        <mxCell id="jjzzAAq12mvwuto8nEBg-2" value="time += 5 * avgTrackLength" style="rounded=1;whiteSpace=wrap;html=1;" parent="WIyWlLk6GJQsqaUBKTNV-1" vertex="1">
          <mxGeometry x="341" y="220" width="160" height="40" as="geometry" />
        </mxCell>
        <mxCell id="cshyPNhUjyc9ggC8GVqP-1" value="No" style="text;html=1;align=center;verticalAlign=middle;whiteSpace=wrap;rounded=0;" parent="WIyWlLk6GJQsqaUBKTNV-1" vertex="1">
          <mxGeometry x="400" y="390" width="40" height="30" as="geometry" />
        </mxCell>
        <mxCell id="UOJyJ2LnOYlyaIrmfekp-7" style="edgeStyle=orthogonalEdgeStyle;rounded=0;orthogonalLoop=1;jettySize=auto;html=1;exitX=1;exitY=0.5;exitDx=0;exitDy=0;entryX=0.5;entryY=0;entryDx=0;entryDy=0;" parent="WIyWlLk6GJQsqaUBKTNV-1" source="ZAJGRfn8nqSbvOP2YXQ2-7" target="cnz26nKCDBlTjsE_XX1h-4" edge="1">
          <mxGeometry relative="1" as="geometry">
            <mxPoint x="240" y="620" as="targetPoint" />
            <Array as="points">
              <mxPoint x="320" y="500" />
              <mxPoint x="320" y="600" />
              <mxPoint x="221" y="600" />
            </Array>
          </mxGeometry>
        </mxCell>
        <mxCell id="fKGzsHX2WgbHvw9zgZlm-16" style="edgeStyle=orthogonalEdgeStyle;rounded=0;orthogonalLoop=1;jettySize=auto;html=1;exitX=0;exitY=0.5;exitDx=0;exitDy=0;entryX=0.5;entryY=0;entryDx=0;entryDy=0;" edge="1" parent="WIyWlLk6GJQsqaUBKTNV-1" source="ZAJGRfn8nqSbvOP2YXQ2-7" target="fKGzsHX2WgbHvw9zgZlm-14">
          <mxGeometry relative="1" as="geometry" />
        </mxCell>
        <mxCell id="ZAJGRfn8nqSbvOP2YXQ2-7" value="time &amp;lt; 22:00 &amp;amp;&amp;amp; &lt;br&gt;tracks % 2 == 0" style="rhombus;whiteSpace=wrap;html=1;shadow=0;fontFamily=Helvetica;fontSize=12;align=center;strokeWidth=1;spacing=6;spacingTop=0;spacingLeft=5;spacingRight=5;" parent="WIyWlLk6GJQsqaUBKTNV-1" vertex="1">
          <mxGeometry x="141" y="460" width="160" height="80" as="geometry" />
        </mxCell>
        <mxCell id="UOJyJ2LnOYlyaIrmfekp-2" style="edgeStyle=orthogonalEdgeStyle;rounded=0;orthogonalLoop=1;jettySize=auto;html=1;exitX=0.5;exitY=1;exitDx=0;exitDy=0;entryX=0.5;entryY=0;entryDx=0;entryDy=0;" parent="WIyWlLk6GJQsqaUBKTNV-1" source="fKGzsHX2WgbHvw9zgZlm-14" target="cnz26nKCDBlTjsE_XX1h-4" edge="1">
          <mxGeometry relative="1" as="geometry">
            <mxPoint x="117" y="600" as="sourcePoint" />
            <mxPoint x="240" y="620" as="targetPoint" />
            <Array as="points">
              <mxPoint x="101" y="600" />
              <mxPoint x="221" y="600" />
            </Array>
          </mxGeometry>
        </mxCell>
        <mxCell id="ZAJGRfn8nqSbvOP2YXQ2-25" value="Yes" style="text;html=1;align=center;verticalAlign=middle;whiteSpace=wrap;rounded=0;" parent="WIyWlLk6GJQsqaUBKTNV-1" vertex="1">
          <mxGeometry x="100" y="470" width="40" height="30" as="geometry" />
        </mxCell>
        <mxCell id="ZAJGRfn8nqSbvOP2YXQ2-26" value="No" style="text;html=1;align=center;verticalAlign=middle;whiteSpace=wrap;rounded=0;" parent="WIyWlLk6GJQsqaUBKTNV-1" vertex="1">
          <mxGeometry x="299" y="470" width="41" height="30" as="geometry" />
        </mxCell>
        <mxCell id="cnz26nKCDBlTjsE_XX1h-0" value="&lt;div&gt;&lt;span style=&quot;text-align: center; background-color: transparent; color: light-dark(rgb(0, 0, 0), rgb(255, 255, 255));&quot;&gt;peopleAmount&amp;nbsp;&lt;/span&gt;&lt;span style=&quot;text-align: center;&quot;&gt;- количество людей, пришедших на концерт&lt;/span&gt;&lt;/div&gt;&lt;div&gt;&lt;span style=&quot;text-align: center; background-color: transparent; color: light-dark(rgb(0, 0, 0), rgb(255, 255, 255));&quot;&gt;avgTrackLength&amp;nbsp;&lt;/span&gt;&lt;span style=&quot;text-align: center;&quot;&gt;- средняя продолжительность трека&lt;/span&gt;&lt;/div&gt;&lt;div&gt;&lt;span style=&quot;text-align: center; background-color: transparent; color: light-dark(rgb(0, 0, 0), rgb(255, 255, 255));&quot;&gt;newSongs&amp;nbsp;&lt;/span&gt;&lt;span style=&quot;text-align: center;&quot;&gt;- количество исполненных новых песен&lt;/span&gt;&lt;/div&gt;&lt;div&gt;&lt;span style=&quot;text-align: center;&quot;&gt;time&amp;nbsp;&lt;/span&gt;- текущее время&lt;div&gt;&lt;div&gt;&lt;span style=&quot;text-align: center; background-color: transparent; color: light-dark(rgb(0, 0, 0), rgb(255, 255, 255));&quot;&gt;tracks&lt;/span&gt;&lt;span style=&quot;text-align: center; background-color: transparent; color: light-dark(rgb(0, 0, 0), rgb(255, 255, 255));&quot;&gt;&amp;nbsp;&lt;/span&gt;- суммарное&amp;nbsp;&lt;span style=&quot;background-color: initial;&quot;&gt;количество треков&lt;/span&gt;&lt;/div&gt;&lt;/div&gt;&lt;/div&gt;" style="text;html=1;align=left;verticalAlign=top;whiteSpace=wrap;rounded=0;" parent="WIyWlLk6GJQsqaUBKTNV-1" vertex="1">
          <mxGeometry x="420" y="10" width="220" height="120" as="geometry" />
        </mxCell>
        <mxCell id="cnz26nKCDBlTjsE_XX1h-3" value="Yes" style="text;html=1;align=center;verticalAlign=middle;whiteSpace=wrap;rounded=0;" parent="WIyWlLk6GJQsqaUBKTNV-1" vertex="1">
          <mxGeometry x="200" y="390" width="40" height="30" as="geometry" />
        </mxCell>
        <mxCell id="fKGzsHX2WgbHvw9zgZlm-18" style="edgeStyle=orthogonalEdgeStyle;rounded=0;orthogonalLoop=1;jettySize=auto;html=1;exitX=0.5;exitY=1;exitDx=0;exitDy=0;entryX=0.5;entryY=0;entryDx=0;entryDy=0;" edge="1" parent="WIyWlLk6GJQsqaUBKTNV-1" source="cnz26nKCDBlTjsE_XX1h-4" target="fKGzsHX2WgbHvw9zgZlm-17">
          <mxGeometry relative="1" as="geometry" />
        </mxCell>
        <mxCell id="cnz26nKCDBlTjsE_XX1h-4" value="time += avgTrackLength" style="rounded=1;whiteSpace=wrap;html=1;fontSize=12;glass=0;strokeWidth=1;shadow=0;" parent="WIyWlLk6GJQsqaUBKTNV-1" vertex="1">
          <mxGeometry x="139" y="640" width="164" height="40" as="geometry" />
        </mxCell>
        <mxCell id="fKGzsHX2WgbHvw9zgZlm-9" style="edgeStyle=orthogonalEdgeStyle;rounded=0;orthogonalLoop=1;jettySize=auto;html=1;exitX=0.5;exitY=1;exitDx=0;exitDy=0;entryX=0.5;entryY=0;entryDx=0;entryDy=0;" edge="1" parent="WIyWlLk6GJQsqaUBKTNV-1" source="fKGzsHX2WgbHvw9zgZlm-2" target="fKGzsHX2WgbHvw9zgZlm-7">
          <mxGeometry relative="1" as="geometry">
            <Array as="points">
              <mxPoint x="219" y="340" />
              <mxPoint x="320" y="340" />
            </Array>
          </mxGeometry>
        </mxCell>
        <mxCell id="fKGzsHX2WgbHvw9zgZlm-2" value="tracks += 10" style="rounded=1;whiteSpace=wrap;html=1;" vertex="1" parent="WIyWlLk6GJQsqaUBKTNV-1">
          <mxGeometry x="178" y="280" width="82" height="40" as="geometry" />
        </mxCell>
        <mxCell id="fKGzsHX2WgbHvw9zgZlm-11" style="edgeStyle=orthogonalEdgeStyle;rounded=0;orthogonalLoop=1;jettySize=auto;html=1;exitX=0.5;exitY=1;exitDx=0;exitDy=0;entryX=0.5;entryY=0;entryDx=0;entryDy=0;" edge="1" parent="WIyWlLk6GJQsqaUBKTNV-1" source="fKGzsHX2WgbHvw9zgZlm-4" target="fKGzsHX2WgbHvw9zgZlm-7">
          <mxGeometry relative="1" as="geometry">
            <Array as="points">
              <mxPoint x="419" y="340" />
              <mxPoint x="320" y="340" />
            </Array>
          </mxGeometry>
        </mxCell>
        <mxCell id="fKGzsHX2WgbHvw9zgZlm-4" value="tracks += 5" style="rounded=1;whiteSpace=wrap;html=1;" vertex="1" parent="WIyWlLk6GJQsqaUBKTNV-1">
          <mxGeometry x="378" y="280" width="82" height="40" as="geometry" />
        </mxCell>
        <mxCell id="fKGzsHX2WgbHvw9zgZlm-12" style="edgeStyle=orthogonalEdgeStyle;rounded=0;orthogonalLoop=1;jettySize=auto;html=1;exitX=0;exitY=0.5;exitDx=0;exitDy=0;entryX=0.5;entryY=0;entryDx=0;entryDy=0;" edge="1" parent="WIyWlLk6GJQsqaUBKTNV-1" source="fKGzsHX2WgbHvw9zgZlm-7" target="ZAJGRfn8nqSbvOP2YXQ2-7">
          <mxGeometry relative="1" as="geometry">
            <Array as="points">
              <mxPoint x="221" y="420" />
            </Array>
          </mxGeometry>
        </mxCell>
        <mxCell id="fKGzsHX2WgbHvw9zgZlm-13" style="edgeStyle=orthogonalEdgeStyle;rounded=0;orthogonalLoop=1;jettySize=auto;html=1;exitX=1;exitY=0.5;exitDx=0;exitDy=0;entryX=0.5;entryY=0;entryDx=0;entryDy=0;" edge="1" parent="WIyWlLk6GJQsqaUBKTNV-1" source="fKGzsHX2WgbHvw9zgZlm-7" target="ir5nsz0QgqIiOz35YuUZ-16">
          <mxGeometry relative="1" as="geometry">
            <Array as="points">
              <mxPoint x="480" y="420" />
              <mxPoint x="480" y="760" />
              <mxPoint x="280" y="760" />
            </Array>
          </mxGeometry>
        </mxCell>
        <mxCell id="fKGzsHX2WgbHvw9zgZlm-7" value="newSongs &amp;gt; 0" style="rhombus;whiteSpace=wrap;html=1;shadow=0;fontFamily=Helvetica;fontSize=12;align=center;strokeWidth=1;spacing=6;spacingTop=-4;" vertex="1" parent="WIyWlLk6GJQsqaUBKTNV-1">
          <mxGeometry x="240" y="380" width="160" height="80" as="geometry" />
        </mxCell>
        <mxCell id="fKGzsHX2WgbHvw9zgZlm-14" value="newSongs--" style="rounded=1;whiteSpace=wrap;html=1;fontSize=12;glass=0;strokeWidth=1;shadow=0;" vertex="1" parent="WIyWlLk6GJQsqaUBKTNV-1">
          <mxGeometry x="40" y="540" width="120" height="40" as="geometry" />
        </mxCell>
        <mxCell id="fKGzsHX2WgbHvw9zgZlm-19" style="edgeStyle=orthogonalEdgeStyle;rounded=0;orthogonalLoop=1;jettySize=auto;html=1;exitX=0.5;exitY=1;exitDx=0;exitDy=0;entryX=0.5;entryY=0;entryDx=0;entryDy=0;" edge="1" parent="WIyWlLk6GJQsqaUBKTNV-1" source="fKGzsHX2WgbHvw9zgZlm-17" target="fKGzsHX2WgbHvw9zgZlm-7">
          <mxGeometry relative="1" as="geometry">
            <Array as="points">
              <mxPoint x="219" y="760" />
              <mxPoint x="20" y="760" />
              <mxPoint x="20" y="360" />
              <mxPoint x="320" y="360" />
            </Array>
          </mxGeometry>
        </mxCell>
        <mxCell id="fKGzsHX2WgbHvw9zgZlm-17" value="tracks++" style="rounded=1;whiteSpace=wrap;html=1;fontSize=12;glass=0;strokeWidth=1;shadow=0;" vertex="1" parent="WIyWlLk6GJQsqaUBKTNV-1">
          <mxGeometry x="178" y="700" width="82" height="40" as="geometry" />
        </mxCell>
      </root>
    </mxGraphModel>
  </diagram>
</mxfile>
